HIERARCHY
ROOT Hips
{
	OFFSET 0.000000 0.000000 0.000000
	CHANNELS 6 Xposition Yposition Zposition Xrotation Yrotation Zrotation
	JOINT LeftUpLeg_virtual
	{
		OFFSET 0.000000 0.000000 0.000000
		CHANNELS 3 Xrotation Yrotation Zrotation
		JOINT LeftUpLeg
		{
			OFFSET 13.026900 -6.336304 -1.092800
			CHANNELS 3 Xrotation Yrotation Zrotation
			JOINT LeftLeg
			{
				OFFSET 0.524474 -46.096886 9.782700
				CHANNELS 3 Xrotation Yrotation Zrotation
				JOINT LeftFoot
				{
					OFFSET -0.524474 -53.427422 -12.948200
					CHANNELS 3 Xrotation Yrotation Zrotation
					JOINT LeftToeBase
					{
						OFFSET 0.192200 -14.009700 16.364100
						CHANNELS 3 Xrotation Yrotation Zrotation
						JOINT LeftToe_End
						{
							OFFSET -1.784700 -0.561700 9.474800
							CHANNELS 3 Xrotation Yrotation Zrotation
							End Site
							{
								OFFSET 0 0 0
							}
						}
					}
				}
			}
		}
	}
	JOINT RightUpLeg_virtual
	{
		OFFSET 0.000000 0.000000 0.000000
		CHANNELS 3 Xrotation Yrotation Zrotation
		JOINT RightUpLeg
		{
			OFFSET -12.883000 -6.336304 -1.092800
			CHANNELS 3 Xrotation Yrotation Zrotation
			JOINT RightLeg
			{
				OFFSET -0.524587 -46.096825 9.782800
				CHANNELS 3 Xrotation Yrotation Zrotation
				JOINT RightFoot
				{
					OFFSET 0.524587 -53.427383 -12.948300
					CHANNELS 3 Xrotation Yrotation Zrotation
					JOINT RightToeBase
					{
						OFFSET -0.192200 -14.009700 16.364100
						CHANNELS 3 Xrotation Yrotation Zrotation
						JOINT RightToe_End
						{
							OFFSET 1.784700 -0.561700 9.474800
							CHANNELS 3 Xrotation Yrotation Zrotation
							End Site
							{
								OFFSET 0 0 0
							}
						}
					}
				}
			}
		}
	}
	JOINT Spine_virtual
	{
		OFFSET 0.000000 0.000000 0.000000
		CHANNELS 3 Xrotation Yrotation Zrotation
		JOINT Spine
		{
			OFFSET 0.072000 7.257294 -0.789700
			CHANNELS 3 Xrotation Yrotation Zrotation
			JOINT Spine1
			{
				OFFSET 0.000000 12.508769 -0.658067
				CHANNELS 3 Xrotation Yrotation Zrotation
				JOINT Spine1_split
				{
					OFFSET 0.000000 12.508769 -0.658067
					CHANNELS 3 Xrotation Yrotation Zrotation
					JOINT Spine2
					{
						OFFSET 0.000000 12.508769 -0.658067
						CHANNELS 3 Xrotation Yrotation Zrotation
						JOINT Neck_virtual
						{
							OFFSET 0.000000 0.000000 0.000000
							CHANNELS 3 Xrotation Yrotation Zrotation
							JOINT Neck
							{
								OFFSET 0.000000 14.033295 7.520400
								CHANNELS 3 Xrotation Yrotation Zrotation
								JOINT Head
								{
									OFFSET 0.000000 8.198502 5.703100
									CHANNELS 3 Xrotation Yrotation Zrotation
									JOINT HeadTop_End
									{
										OFFSET 0.000000 17.760803 13.332701
										CHANNELS 3 Xrotation Yrotation Zrotation
										End Site
										{
											OFFSET 0 0 0
										}
									}
								}
							}
						}
						JOINT LeftShoulder_virtual
						{
							OFFSET 0.000000 0.000000 0.000000
							CHANNELS 3 Xrotation Yrotation Zrotation
							JOINT LeftShoulder
							{
								OFFSET 6.292450 5.785301 -0.669000
								CHANNELS 3 Xrotation Yrotation Zrotation
								JOINT LeftShoulder_split
								{
									OFFSET 6.292450 5.785301 -0.669000
									CHANNELS 3 Xrotation Yrotation Zrotation
									JOINT LeftArm
									{
										OFFSET 13.907140 -6.093903 1.965100
										CHANNELS 3 Xrotation Yrotation Zrotation
										JOINT LeftForeArm
										{
											OFFSET 34.140198 0.000000 0.000000
											CHANNELS 3 Xrotation Yrotation Zrotation
											JOINT LeftHand
											{
												OFFSET 40.960209 0.000000 0.000000
												CHANNELS 3 Xrotation Yrotation Zrotation
												End Site
												{
													OFFSET 0 0 0
												}
											}
										}
									}
								}
							}
						}
						JOINT RightShoulder_virtual
						{
							OFFSET 0.000000 0.000000 0.000000
							CHANNELS 3 Xrotation Yrotation Zrotation
							JOINT RightShoulder
							{
								OFFSET -6.292450 5.785301 -0.669000
								CHANNELS 3 Xrotation Yrotation Zrotation
								JOINT RightShoulder_split
								{
									OFFSET -6.292450 5.785301 -0.669000
									CHANNELS 3 Xrotation Yrotation Zrotation
									JOINT RightArm
									{
										OFFSET -13.907140 -6.093903 1.965100
										CHANNELS 3 Xrotation Yrotation Zrotation
										JOINT RightForeArm
										{
											OFFSET -34.140198 0.000000 0.000000
											CHANNELS 3 Xrotation Yrotation Zrotation
											JOINT RightHand
											{
												OFFSET -40.960209 0.000000 0.000000
												CHANNELS 3 Xrotation Yrotation Zrotation
												End Site
												{
													OFFSET 0 0 0
												}
											}
										}
									}
								}
							}
						}
					}
				}
			}
		}
	}
}
MOTION
Frames: 4
Frame Time: 0.03333333
-2.397161 73.204559 11.173912 0.000000 0.000000 0.000000 32.752984 -55.686799 29.344422 -75.697074 -4.827088 23.213819 83.005315 -9.293073 -0.101345 -19.319342 1.417843 -12.103965 -2.395970 -0.571847 1.126553 0.000000 0.000000 0.000000 34.938497 -58.924295 32.511858 -73.460727 -0.784385 -32.664417 83.128866 6.679561 1.366409 -26.342713 -2.471890 11.642233 1.736630 1.100913 0.058133 0.000000 0.000000 0.000000 36.772069 -54.977757 31.076217 8.163460 -1.572847 -2.185010 4.174865 -3.015032 -2.701485 1.078647 0.549662 0.622248 0.000000 0.000000 0.000000 3.254017 -3.445869 -2.110787 -4.006009 14.563531 -7.238261 -34.237566 34.988669 4.507477 0.000000 0.000000 0.000000 3.455509 -3.458198 -2.449633 4.846332 -9.335032 -6.182864 -4.098269 -3.330679 0.797805 -59.353456 2.725843 -23.048711 20.121153 -22.342112 16.824868 0.000000 0.000000 0.000000 3.621870 -3.162401 -2.191340 5.849263 7.635251 13.533872 3.958600 4.280395 -0.629315 -10.081459 -3.073535 53.757062 -16.975733 40.312490 8.609112 0.000000 0.000000 0.000000 
-1.972676 69.108841 10.165733 0.000000 0.000000 0.000000 34.119831 -54.896078 30.136577 -80.785265 -8.473143 23.361028 87.968738 -10.255387 -0.266354 -19.127718 1.273523 -13.166227 -2.722403 -0.539977 0.947491 0.000000 0.000000 0.000000 36.514878 -57.997274 33.427113 -79.060396 0.987167 -33.534853 87.987747 7.726970 1.343609 -26.027203 -1.921922 11.034309 1.675714 1.137231 0.096561 0.000000 0.000000 0.000000 38.260449 -54.368302 31.945478 7.560998 -1.588333 -1.998334 4.435159 -2.832609 -2.632349 1.188277 0.347109 0.651601 0.000000 0.000000 0.000000 3.532215 -3.277582 -2.046917 -2.704318 15.193257 -8.350693 -34.636695 33.857019 3.842057 0.000000 0.000000 0.000000 3.705509 -3.289620 -2.438565 5.195123 -9.557724 -6.149110 -3.822935 -3.237757 1.069251 -60.763514 1.408403 -23.230358 21.109535 -21.882357 16.780813 0.000000 0.000000 0.000000 3.888792 -2.961711 -2.118749 6.246979 7.903915 13.786889 4.096245 4.366775 -0.764375 -9.847770 -1.446824 52.010029 -17.648849 41.955656 9.288864 0.000000 0.000000 0.000000 
-1.592525 65.132507 9.219627 0.000000 0.000000 0.000000 34.967307 -54.224066 30.373592 -85.370917 -12.071593 23.481724 92.458051 -11.357017 -0.236415 -18.825682 0.917679 -14.205478 -3.136684 -0.478920 0.738287 0.000000 0.000000 0.000000 37.644403 -57.282283 33.817735 -84.440816 2.853297 -34.065442 92.502222 8.416671 1.628087 -25.057852 -1.823380 10.229049 1.659449 1.095556 0.153880 0.000000 0.000000 0.000000 39.346715 -53.986146 32.440390 7.013084 -1.548049 -1.805483 4.679002 -2.599234 -2.558127 1.164177 0.097636 0.762892 0.000000 0.000000 0.000000 3.827829 -3.052782 -1.984240 -1.208908 15.796103 -9.440273 -34.505743 32.914470 3.027797 0.000000 0.000000 0.000000 3.970516 -3.071394 -2.430491 5.564271 -9.567332 -6.163486 -3.557591 -3.094976 1.218417 -61.904170 0.306408 -23.582072 22.200898 -21.452349 16.605225 0.000000 0.000000 0.000000 4.155628 -2.718893 -2.059653 6.667935 8.109029 14.074985 4.248945 4.371939 -0.839453 -9.319788 0.015049 50.003999 -18.011031 42.982507 9.822772 0.000000 0.000000 0.000000 
-1.268398 61.439560 8.303158 0.000000 0.000000 0.000000 35.385629 -53.621708 30.191161 -89.427544 -15.524334 23.602882 96.365841 -12.538961 -0.033980 -18.319583 0.339509 -15.221319 -3.538644 -0.401794 0.532045 0.000000 0.000000 0.000000 38.343709 -56.807127 33.841074 -89.443684 4.754566 -34.379098 96.682106 8.913975 2.088401 -23.350919 -2.083901 9.478365 1.415859 1.006416 0.204318 0.000000 0.000000 0.000000 40.185613 -53.773062 32.720773 6.514432 -1.450797 -1.629307 4.906396 -2.357488 -2.512043 0.952205 -0.273122 0.886800 0.000000 0.000000 0.000000 4.115816 -2.804918 -1.947173 0.437103 16.398961 -10.479730 -34.027883 32.086159 2.201224 0.000000 0.000000 0.000000 4.238917 -2.837123 -2.443747 5.955547 -9.352307 -6.207314 -3.269952 -2.946909 1.208580 -62.790250 -0.611024 -24.022675 23.406814 -20.998216 16.336872 0.000000 0.000000 0.000000 4.408111 -2.477120 -2.038165 7.108815 8.283517 14.501094 4.448016 4.309398 -0.828284 -8.662269 1.111726 47.891114 -18.002902 43.568667 10.175752 0.000000 0.000000 0.000000 
